<svg width="304" height="42" viewBox="0 0 304 42" fill="none" xmlns="http://www.w3.org/2000/svg">
<path d="M36.3945 1.02344L37.3413 1.34529L37.7907 0.0234375H36.3945V1.02344ZM22.8047 41V42H23.5209L23.7515 41.3219L22.8047 41ZM13.5625 41L12.6155 41.3213L12.8458 42H13.5625V41ZM0 1.02344V0.0234375H-1.39524L-0.946986 1.34471L0 1.02344ZM8.55859 1.02344L9.51209 0.722044L9.29127 0.0234375H8.55859V1.02344ZM16.0781 24.8125L15.1246 25.1139L15.1252 25.1157L16.0781 24.8125ZM16.707 27.082L15.7397 27.3357L15.7408 27.3397L16.707 27.082ZM17.582 30.582L16.6086 30.8111L16.6106 30.8195L16.6127 30.828L17.582 30.582ZM18.2109 33.6172L17.2201 33.7523H19.2018L18.2109 33.6172ZM18.7852 30.582L17.8125 30.3498L17.8109 30.3566L17.8093 30.3636L18.7852 30.582ZM19.6328 27.1094L18.6655 26.8556L18.6627 26.8668L19.6328 27.1094ZM20.2617 24.8125L19.3088 24.5091L19.305 24.5213L20.2617 24.8125ZM27.8359 1.02344V0.0234375H27.1049L26.8831 0.720053L27.8359 1.02344ZM35.4477 0.701581L21.8579 40.6781L23.7515 41.3219L37.3413 1.34529L35.4477 0.701581ZM22.8047 40H13.5625V42H22.8047V40ZM14.5095 40.6787L0.946986 0.702162L-0.946986 1.34471L12.6155 41.3213L14.5095 40.6787ZM0 2.02344H8.55859V0.0234375H0V2.02344ZM7.60509 1.32483L15.1246 25.1139L17.0316 24.5111L9.51209 0.722044L7.60509 1.32483ZM15.1252 25.1157C15.2439 25.4887 15.4475 26.2214 15.7398 27.3357L17.6743 26.8283C17.3833 25.7187 17.1676 24.9384 17.0311 24.5093L15.1252 25.1157ZM15.7408 27.3397C16.0296 28.4229 16.3189 29.5799 16.6086 30.8111L18.5554 30.353C18.2618 29.105 17.9678 27.9287 17.6733 26.8244L15.7408 27.3397ZM16.6127 30.828C16.9179 32.0305 17.1178 33.002 17.2201 33.7523L19.2018 33.4821C19.0853 32.6282 18.866 31.5763 18.5513 30.3361L16.6127 30.828ZM19.2018 33.7523C19.3059 32.9889 19.4908 32.0074 19.761 30.8005L17.8093 30.3636C17.5326 31.5994 17.3348 32.6413 17.2201 33.4821L19.2018 33.7523ZM19.7578 30.8143C20.0487 29.596 20.3305 28.4419 20.603 27.3519L18.6627 26.8668C18.3883 27.9644 18.1049 29.1254 17.8125 30.3498L19.7578 30.8143ZM20.6001 27.3631C20.8921 26.2499 21.0972 25.5019 21.2184 25.1037L19.305 24.5213C19.171 24.9617 18.9569 25.7449 18.6655 26.8557L20.6001 27.3631ZM21.2146 25.1159L28.7888 1.32682L26.8831 0.720053L19.3089 24.5091L21.2146 25.1159ZM27.8359 2.02344H36.3945V0.0234375H27.8359V2.02344ZM65.9258 41L64.9692 41.2914L65.185 42H65.9258V41ZM63.0273 31.4844L63.984 31.193L63.7681 30.4844H63.0273V31.4844ZM48.4531 31.4844V30.4844H47.7124L47.4965 31.193L48.4531 31.4844ZM45.5547 41V42H46.2955L46.5113 41.2914L45.5547 41ZM36.4219 41L35.4785 40.6684L35.0104 42H36.4219V41ZM50.5312 0.859375V-0.140625H49.8228L49.5878 0.527765L50.5312 0.859375ZM60.8945 0.859375L61.8375 0.526622L61.6021 -0.140625H60.8945V0.859375ZM75.0586 41V42H76.4719L76.0016 40.6672L75.0586 41ZM61.0039 24.375V25.375H62.3631L61.9586 24.0774L61.0039 24.375ZM58.1055 15.0781L57.1461 15.3603L57.1484 15.368L57.1508 15.3758L58.1055 15.0781ZM57.3672 12.6992L56.4084 12.9833L56.4116 12.994L56.415 13.0046L57.3672 12.6992ZM56.4648 9.71875L55.5033 9.99347L55.5063 10.0038L55.5094 10.0141L56.4648 9.71875ZM55.7539 7.06641L56.7254 6.82945H54.7824L55.7539 7.06641ZM54.9883 9.85547L54.0291 9.57243L54.0262 9.58287L54.9883 9.85547ZM53.457 15.0781L54.4125 15.3732L54.4137 15.3693L53.457 15.0781ZM50.5859 24.375L49.6305 24.0799L49.2305 25.375H50.5859V24.375ZM66.8824 40.7086L63.984 31.193L62.0707 31.7758L64.9692 41.2914L66.8824 40.7086ZM63.0273 30.4844H48.4531V32.4844H63.0273V30.4844ZM47.4965 31.193L44.5981 40.7086L46.5113 41.2914L49.4097 31.7758L47.4965 31.193ZM45.5547 40H36.4219V42H45.5547V40ZM37.3653 41.3316L51.4747 1.19098L49.5878 0.527765L35.4785 40.6684L37.3653 41.3316ZM50.5312 1.85938H60.8945V-0.140625H50.5312V1.85938ZM59.9515 1.19213L74.1156 41.3328L76.0016 40.6672L61.8375 0.526622L59.9515 1.19213ZM75.0586 40H65.9258V42H75.0586V40ZM61.9586 24.0774L59.0601 14.7805L57.1508 15.3758L60.0492 24.6726L61.9586 24.0774ZM59.0648 14.796C58.8794 14.1653 58.6306 13.3639 58.3194 12.3938L56.415 13.0046C56.7236 13.9669 56.967 14.7514 57.1461 15.3603L59.0648 14.796ZM58.326 12.4151C58.0332 11.4269 57.7313 10.4297 57.4202 9.42344L55.5094 10.0141C55.8182 11.013 56.1179 12.0028 56.4084 12.9833L58.326 12.4151ZM57.4264 9.44403C57.137 8.4314 56.9037 7.56047 56.7254 6.82945L54.7824 7.30336C54.9687 8.06713 55.2093 8.96444 55.5033 9.99347L57.4264 9.44403ZM54.7824 6.82945C54.6052 7.55578 54.3548 8.46893 54.0292 9.57245L55.9474 10.1385C56.278 9.01805 56.538 8.07183 56.7254 7.30336L54.7824 6.82945ZM54.0262 9.58287C53.7172 10.6732 53.4176 11.7084 53.1271 12.6886L55.0447 13.2567C55.3376 12.2682 55.6395 11.2253 55.9504 10.1281L54.0262 9.58287ZM53.1271 12.6886C52.8355 13.6729 52.6268 14.3716 52.5004 14.787L54.4137 15.3693C54.5425 14.9461 54.753 14.2412 55.0447 13.2567L53.1271 12.6886ZM52.5016 14.7831L49.6305 24.0799L51.5414 24.6701L54.4125 15.3732L52.5016 14.7831ZM50.5859 25.375H61.0039V23.375H50.5859V25.375ZM80.1172 41H79.1172V42H80.1172V41ZM80.1172 1.02344V0.0234375H79.1172V1.02344H80.1172ZM88.5938 1.02344H89.5938V0.0234375H88.5938V1.02344ZM88.5938 34H87.5938V35H88.5938V34ZM104.809 34H105.809V33H104.809V34ZM104.809 41V42H105.809V41H104.809ZM81.1172 41V1.02344H79.1172V41H81.1172ZM80.1172 2.02344H88.5938V0.0234375H80.1172V2.02344ZM87.5938 1.02344V34H89.5938V1.02344H87.5938ZM88.5938 35H104.809V33H88.5938V35ZM103.809 34V41H105.809V34H103.809ZM104.809 40H80.1172V42H104.809V40ZM146.918 29.3789L147.875 29.6701L147.875 29.6681L146.918 29.3789ZM143.418 35.8867L142.66 35.2347L142.656 35.2391L143.418 35.8867ZM137.512 40.0977L137.887 41.0247L137.893 41.0222L137.512 40.0977ZM120.559 40.0977L120.177 41.0222L120.184 41.0247L120.559 40.0977ZM114.625 35.8867L113.863 36.5344L113.867 36.5388L114.625 35.8867ZM112.027 10.1016L111.113 9.69592L111.112 9.69846L112.027 10.1016ZM118.316 2.9375L117.802 2.08001L118.316 2.9375ZM139.781 2.9375L139.262 3.79203L139.264 3.79352L139.781 2.9375ZM146.016 10.1016L145.1 10.5027L145.102 10.5072L146.016 10.1016ZM119.93 28.1758L118.984 28.4997L118.987 28.5099L119.93 28.1758ZM123.238 32.8242L122.648 33.6313L122.654 33.6359L123.238 32.8242ZM134.887 32.8242L135.471 33.636L135.477 33.6312L134.887 32.8242ZM138.141 28.1758L137.195 27.8519L137.193 27.857L138.141 28.1758ZM123.238 9.08984L123.822 9.90157L123.824 9.90027L123.238 9.08984ZM119.93 13.7383L118.986 13.4068L118.984 13.4118L119.93 13.7383ZM147.066 20.957C147.066 23.9554 146.694 26.6635 145.961 29.0897L147.875 29.6681C148.673 27.0266 149.066 24.1201 149.066 20.957H147.066ZM145.961 29.0877C145.232 31.4832 144.129 33.5265 142.66 35.2347L144.176 36.5388C145.843 34.6011 147.072 32.3059 147.875 29.6701L145.961 29.0877ZM142.656 35.2391C141.218 36.9312 139.383 38.2445 137.131 39.1731L137.893 41.0222C140.416 39.9821 142.519 38.4881 144.18 36.5344L142.656 35.2391ZM137.137 39.1707C134.895 40.0776 132.203 40.5469 129.035 40.5469V42.5469C132.394 42.5469 135.352 42.05 137.887 41.0247L137.137 39.1707ZM129.035 40.5469C125.868 40.5469 123.175 40.0776 120.934 39.1707L120.184 41.0247C122.718 42.05 125.677 42.5469 129.035 42.5469V40.5469ZM120.94 39.1731C118.686 38.2441 116.841 36.9296 115.383 35.2347L113.867 36.5388C115.545 38.4896 117.655 39.9824 120.177 41.0222L120.94 39.1731ZM115.387 35.2391C113.936 33.5316 112.84 31.4786 112.11 29.0623L110.195 29.6408C110.996 32.2922 112.215 34.596 113.863 36.5344L115.387 35.2391ZM112.11 29.0623C111.377 26.6367 111.004 23.9196 111.004 20.9023H109.004C109.004 24.083 109.397 26.9987 110.195 29.6408L112.11 29.0623ZM111.004 20.9023C111.004 16.8712 111.661 13.4139 112.942 10.5047L111.112 9.69846C109.696 12.9143 109.004 16.6575 109.004 20.9023H111.004ZM112.941 10.5072C114.227 7.61002 116.186 5.38184 118.831 3.79499L117.802 2.08001C114.796 3.88379 112.562 6.43164 111.113 9.69593L112.941 10.5072ZM118.831 3.79499C121.459 2.21837 124.858 1.39453 129.09 1.39453V-0.605469C124.609 -0.605469 120.825 0.266005 117.802 2.08001L118.831 3.79499ZM129.09 1.39453C133.304 1.39453 136.673 2.21831 139.262 3.79202L140.301 2.08298C137.312 0.266069 133.553 -0.605469 129.09 -0.605469V1.39453ZM139.264 3.79352C141.89 5.37918 143.831 7.606 145.1 10.5027L146.932 9.70046C145.502 6.43567 143.287 3.88645 140.298 2.08148L139.264 3.79352ZM145.102 10.5072C146.401 13.4341 147.066 16.9088 147.066 20.957H149.066C149.066 16.6928 148.365 12.9305 146.93 9.69593L145.102 10.5072ZM117.891 20.957C117.891 23.8246 118.246 26.3457 118.984 28.4997L120.876 27.8519C120.228 25.9589 119.891 23.6675 119.891 20.957H117.891ZM118.987 28.5099C119.755 30.6755 120.968 32.4019 122.648 33.6312L123.829 32.0172C122.519 31.0591 121.526 29.6864 120.872 27.8416L118.987 28.5099ZM122.654 33.6359C124.362 34.8649 126.516 35.4375 129.035 35.4375V33.4375C126.815 33.4375 125.104 32.9346 123.822 32.0125L122.654 33.6359ZM129.035 35.4375C131.587 35.4375 133.76 34.8666 135.471 33.6359L134.303 32.0125C133.023 32.9329 131.296 33.4375 129.035 33.4375V35.4375ZM135.477 33.6312C137.162 32.3987 138.358 30.6667 139.088 28.4946L137.193 27.857C136.574 29.6953 135.601 31.0622 134.296 32.0172L135.477 33.6312ZM139.087 28.4997C139.824 26.3457 140.18 23.8246 140.18 20.957H138.18C138.18 23.6675 137.843 25.9589 137.195 27.8519L139.087 28.4997ZM140.18 20.957C140.18 16.6548 139.378 13.1399 137.666 10.5127L135.99 11.6045C137.414 13.7897 138.18 16.8738 138.18 20.957H140.18ZM137.666 10.5127C135.867 7.75093 132.923 6.44922 129.09 6.44922V8.44922C132.439 8.44922 134.654 9.55376 135.99 11.6045L137.666 10.5127ZM129.09 6.44922C126.55 6.44922 124.378 7.03191 122.652 8.27942L123.824 9.90027C125.124 8.96027 126.853 8.44922 129.09 8.44922V6.44922ZM122.654 8.27812C120.967 9.49194 119.754 11.223 118.986 13.4068L120.873 14.0698C121.528 12.2067 122.52 10.8388 123.822 9.90157L122.654 8.27812ZM118.984 13.4118C118.246 15.5498 117.891 18.0724 117.891 20.957H119.891C119.891 18.2271 120.228 15.9372 120.875 14.0648L118.984 13.4118ZM176.969 2.33594L176.62 3.27316L176.622 3.27403L176.969 2.33594ZM182.93 17.7852L183.822 18.2371L182.93 17.7852ZM180.195 21.2578L180.838 22.024L180.195 21.2578ZM176.531 23.582L176.115 22.673L175.043 23.1642L175.702 24.1415L176.531 23.582ZM188.289 41V42H190.171L189.118 40.4405L188.289 41ZM178.883 41L178.034 41.5282L178.327 42H178.883V41ZM169.34 25.6602L170.189 25.1319L169.895 24.6602H169.34V25.6602ZM164.828 25.6602V24.6602H163.828V25.6602H164.828ZM164.828 41V42H165.828V41H164.828ZM156.352 41H155.352V42H156.352V41ZM156.352 1.02344V0.0234375H155.352V1.02344H156.352ZM164.828 7.96875V6.96875H163.828V7.96875H164.828ZM164.828 18.7695H163.828V19.7695H164.828V18.7695ZM173.578 17.375L174.19 18.1663L174.191 18.165L173.578 17.375ZM173.441 9.17188L172.915 10.0219L172.92 10.0252L173.441 9.17188ZM168 2.02344C171.557 2.02344 174.418 2.45376 176.62 3.27316L177.317 1.39872C174.816 0.468115 171.698 0.0234375 168 0.0234375V2.02344ZM176.622 3.27403C178.831 4.08959 180.398 5.29165 181.407 6.84547L183.085 5.7561C181.797 3.77345 179.846 2.33229 177.315 1.39784L176.622 3.27403ZM181.407 6.84547C182.425 8.4118 182.969 10.4418 182.969 13H184.969C184.969 10.1623 184.364 7.72622 183.085 5.7561L181.407 6.84547ZM182.969 13C182.969 14.6954 182.647 16.1303 182.038 17.3332L183.822 18.2371C184.598 16.7057 184.969 14.9504 184.969 13H182.969ZM182.038 17.3332C181.404 18.5847 180.575 19.6339 179.553 20.4916L180.838 22.024C182.076 20.9859 183.07 19.72 183.822 18.2371L182.038 17.3332ZM179.553 20.4916C178.49 21.3833 177.344 22.1095 176.115 22.673L176.948 24.4911C178.344 23.8514 179.641 23.0282 180.838 22.024L179.553 20.4916ZM175.702 24.1415L187.46 41.5595L189.118 40.4405L177.36 23.0225L175.702 24.1415ZM188.289 40H178.883V42H188.289V40ZM179.732 40.4718L170.189 25.1319L168.491 26.1884L178.034 41.5282L179.732 40.4718ZM169.34 24.6602H164.828V26.6602H169.34V24.6602ZM163.828 25.6602V41H165.828V25.6602H163.828ZM164.828 40H156.352V42H164.828V40ZM157.352 41V1.02344H155.352V41H157.352ZM156.352 2.02344H168V0.0234375H156.352V2.02344ZM167.398 6.96875H164.828V8.96875H167.398V6.96875ZM163.828 7.96875V18.7695H165.828V7.96875H163.828ZM164.828 19.7695H167.562V17.7695H164.828V19.7695ZM167.562 19.7695C170.428 19.7695 172.715 19.3054 174.19 18.1663L172.967 16.5837C172.035 17.304 170.312 17.7695 167.562 17.7695V19.7695ZM174.191 18.165C175.702 16.9925 176.41 15.2885 176.41 13.2188H174.41C174.41 14.7949 173.897 15.8616 172.965 16.585L174.191 18.165ZM176.41 13.2188C176.41 11.0683 175.645 9.3464 173.963 8.31859L172.92 10.0252C173.863 10.6015 174.41 11.5775 174.41 13.2188H176.41ZM173.968 8.32187C172.434 7.37113 170.191 6.96875 167.398 6.96875V8.96875C170.075 8.96875 171.86 9.36846 172.915 10.0219L173.968 8.32187ZM217.793 41L216.836 41.2914L217.052 42H217.793V41ZM214.895 31.4844L215.851 31.193L215.635 30.4844H214.895V31.4844ZM200.32 31.4844V30.4844H199.58L199.364 31.193L200.32 31.4844ZM197.422 41V42H198.163L198.378 41.2914L197.422 41ZM188.289 41L187.346 40.6684L186.878 42H188.289V41ZM202.398 0.859375V-0.140625H201.69L201.455 0.527765L202.398 0.859375ZM212.762 0.859375L213.705 0.526622L213.469 -0.140625H212.762V0.859375ZM226.926 41V42H228.339L227.869 40.6672L226.926 41ZM212.871 24.375V25.375H214.23L213.826 24.0774L212.871 24.375ZM209.973 15.0781L209.013 15.3603L209.016 15.368L209.018 15.3758L209.973 15.0781ZM209.234 12.6992L208.276 12.9833L208.279 12.994L208.282 13.0046L209.234 12.6992ZM208.332 9.71875L207.371 9.99347L207.373 10.0038L207.377 10.0141L208.332 9.71875ZM207.621 7.06641L208.593 6.82945H206.65L207.621 7.06641ZM206.855 9.85547L205.896 9.57243L205.893 9.58287L206.855 9.85547ZM205.324 15.0781L206.28 15.3732L206.281 15.3693L205.324 15.0781ZM202.453 24.375L201.498 24.0799L201.098 25.375H202.453V24.375ZM218.75 40.7086L215.851 31.193L213.938 31.7758L216.836 41.2914L218.75 40.7086ZM214.895 30.4844H200.32V32.4844H214.895V30.4844ZM199.364 31.193L196.465 40.7086L198.378 41.2914L201.277 31.7758L199.364 31.193ZM197.422 40H188.289V42H197.422V40ZM189.232 41.3316L203.342 1.19098L201.455 0.527765L187.346 40.6684L189.232 41.3316ZM202.398 1.85938H212.762V-0.140625H202.398V1.85938ZM211.819 1.19213L225.983 41.3328L227.869 40.6672L213.705 0.526622L211.819 1.19213ZM226.926 40H217.793V42H226.926V40ZM213.826 24.0774L210.927 14.7805L209.018 15.3758L211.916 24.6726L213.826 24.0774ZM210.932 14.796C210.747 14.1653 210.498 13.3639 210.187 12.3938L208.282 13.0046C208.591 13.9669 208.834 14.7514 209.013 15.3603L210.932 14.796ZM210.193 12.4151C209.9 11.4269 209.598 10.4297 209.287 9.42344L207.377 10.0141C207.685 11.013 207.985 12.0028 208.276 12.9833L210.193 12.4151ZM209.294 9.44403C209.004 8.4314 208.771 7.56047 208.593 6.82945L206.65 7.30336C206.836 8.06713 207.076 8.96444 207.371 9.99347L209.294 9.44403ZM206.65 6.82945C206.472 7.55578 206.222 8.46893 205.896 9.57245L207.815 10.1385C208.145 9.01805 208.405 8.07183 208.593 7.30336L206.65 6.82945ZM205.893 9.58287C205.584 10.6732 205.285 11.7084 204.994 12.6886L206.912 13.2567C207.205 12.2682 207.507 11.2253 207.818 10.1281L205.893 9.58287ZM204.994 12.6886C204.703 13.6729 204.494 14.3716 204.368 14.787L206.281 15.3693C206.41 14.9461 206.62 14.2412 206.912 13.2567L204.994 12.6886ZM204.369 14.7831L201.498 24.0799L203.409 24.6701L206.28 15.3732L204.369 14.7831ZM202.453 25.375H212.871V23.375H202.453V25.375ZM267.449 41V42H268.449V41H267.449ZM256.676 41L255.809 41.4985L256.097 42H256.676V41ZM239.285 10.7578L240.152 10.2593L239.864 9.75781H239.285V10.7578ZM239.039 10.7578V9.75781H237.979L238.041 10.8157L239.039 10.7578ZM239.395 18.3867L238.395 18.4295L238.395 18.4302L239.395 18.3867ZM239.559 22.1875H240.559V22.1661L240.558 22.1447L239.559 22.1875ZM239.559 41V42H240.559V41H239.559ZM231.984 41H230.984V42H231.984V41ZM231.984 1.02344V0.0234375H230.984V1.02344H231.984ZM242.676 1.02344L243.541 0.521779L243.252 0.0234375H242.676V1.02344ZM260.039 30.9648L259.174 31.4665L259.463 31.9648H260.039V30.9648ZM260.23 30.9648V31.9648H261.26L261.23 30.9354L260.23 30.9648ZM259.93 23.6094L258.93 23.6392L258.93 23.6467L258.931 23.6541L259.93 23.6094ZM259.82 19.9453H258.82V19.9602L258.821 19.9751L259.82 19.9453ZM259.82 1.02344V0.0234375H258.82V1.02344H259.82ZM267.449 1.02344H268.449V0.0234375H267.449V1.02344ZM267.449 40H256.676V42H267.449V40ZM257.543 40.5015L240.152 10.2593L238.418 11.2563L255.809 41.4985L257.543 40.5015ZM239.285 9.75781H239.039V11.7578H239.285V9.75781ZM238.041 10.8157C238.113 12.0684 238.177 13.3303 238.231 14.6014L240.23 14.5158C240.175 13.2348 240.111 11.9628 240.037 10.6999L238.041 10.8157ZM238.231 14.6014C238.233 14.628 238.233 14.6346 238.234 14.6612C238.235 14.6878 238.235 14.6945 238.237 14.721C238.238 14.7476 238.238 14.7543 238.239 14.7809C238.24 14.8074 238.241 14.8141 238.242 14.8407C238.243 14.8673 238.243 14.8739 238.244 14.9005C238.245 14.9271 238.246 14.9337 238.247 14.9603C238.248 14.9869 238.248 14.9935 238.249 15.0201C238.25 15.0467 238.251 15.0533 238.252 15.0799C238.253 15.1065 238.253 15.1132 238.254 15.1397C238.256 15.1663 238.256 15.173 238.257 15.1996C238.258 15.2261 238.258 15.2328 238.26 15.2594C238.261 15.286 238.261 15.2926 238.262 15.3192C238.263 15.3458 238.264 15.3524 238.265 15.379C238.266 15.4056 238.266 15.4122 238.267 15.4388C238.268 15.4654 238.269 15.472 238.27 15.4986C238.271 15.5252 238.271 15.5319 238.272 15.5584C238.274 15.585 238.274 15.5917 238.275 15.6183C238.276 15.6448 238.276 15.6515 238.278 15.6781C238.279 15.7047 238.279 15.7113 238.28 15.7379C238.281 15.7645 238.282 15.7711 238.283 15.7977C238.284 15.8243 238.284 15.8309 238.285 15.8575C238.286 15.8841 238.287 15.8907 238.288 15.9173C238.289 15.9439 238.289 15.9506 238.29 15.9771C238.291 16.0037 238.292 16.0104 238.293 16.037C238.294 16.0635 238.294 16.0702 238.295 16.0968C238.297 16.1234 238.297 16.13 238.298 16.1566C238.299 16.1832 238.299 16.1898 238.301 16.2164C238.302 16.243 238.302 16.2496 238.303 16.2762C238.304 16.3028 238.305 16.3094 238.306 16.336C238.307 16.3626 238.307 16.3693 238.308 16.3958C238.309 16.4224 238.31 16.4291 238.311 16.4557C238.312 16.4822 238.312 16.4889 238.313 16.5155C238.316 16.5686 238.316 16.5819 238.319 16.6351C238.321 16.6883 238.321 16.7016 238.324 16.7547C238.326 16.8079 238.327 16.8212 238.329 16.8744C238.331 16.9275 238.332 16.9408 238.334 16.994C238.336 17.0472 238.337 17.0605 238.339 17.1136C238.341 17.1668 238.342 17.1801 238.344 17.2332C238.346 17.2864 238.347 17.2997 238.349 17.3529C238.352 17.406 238.352 17.4193 238.354 17.4725C238.357 17.5257 238.357 17.539 238.36 17.5921C238.362 17.6453 238.362 17.6586 238.365 17.7118C238.367 17.7649 238.368 17.7782 238.37 17.8314C238.372 17.8846 238.373 17.8979 238.375 17.951C238.377 18.0042 238.378 18.0175 238.38 18.0706C238.382 18.1238 238.383 18.1371 238.385 18.1903C238.387 18.2434 238.388 18.2567 238.39 18.3099C238.393 18.3631 238.393 18.3764 238.395 18.4295L240.394 18.3439C240.392 18.3173 240.392 18.3107 240.391 18.2841C240.39 18.2575 240.39 18.2509 240.388 18.2243C240.387 18.1977 240.387 18.191 240.386 18.1645C240.385 18.1379 240.384 18.1312 240.383 18.1046C240.382 18.0781 240.382 18.0714 240.381 18.0448C240.38 18.0182 240.379 18.0116 240.378 17.985C240.377 17.9584 240.377 17.9518 240.376 17.9252C240.375 17.8986 240.374 17.892 240.373 17.8654C240.372 17.8388 240.372 17.8322 240.371 17.8056C240.369 17.779 240.369 17.7723 240.368 17.7458C240.367 17.7192 240.367 17.7125 240.365 17.6859C240.364 17.6594 240.364 17.6527 240.363 17.6261C240.362 17.5995 240.361 17.5929 240.36 17.5663C240.359 17.5397 240.359 17.5331 240.358 17.5065C240.357 17.4799 240.356 17.4733 240.355 17.4467C240.354 17.4201 240.354 17.4135 240.353 17.3869C240.351 17.3603 240.351 17.3536 240.35 17.3271C240.349 17.3005 240.349 17.2938 240.347 17.2672C240.346 17.2407 240.346 17.234 240.345 17.2074C240.344 17.1808 240.343 17.1742 240.342 17.1476C240.341 17.121 240.341 17.1144 240.34 17.0878C240.339 17.0612 240.338 17.0546 240.337 17.028C240.336 17.0014 240.336 16.9948 240.335 16.9682C240.334 16.9416 240.333 16.9349 240.332 16.9084C240.331 16.8818 240.331 16.8751 240.33 16.8485C240.328 16.822 240.328 16.8153 240.327 16.7887C240.326 16.7621 240.326 16.7555 240.324 16.7289C240.323 16.7023 240.323 16.6957 240.322 16.6691C240.321 16.6425 240.32 16.6359 240.319 16.6093C240.318 16.5827 240.318 16.5761 240.317 16.5495C240.316 16.5229 240.315 16.5162 240.314 16.4897C240.313 16.4631 240.313 16.4564 240.312 16.4298C240.309 16.3767 240.309 16.3634 240.306 16.3102C240.304 16.257 240.304 16.2437 240.301 16.1906C240.299 16.1374 240.298 16.1241 240.296 16.071C240.294 16.0178 240.293 16.0045 240.291 15.9513C240.289 15.8982 240.288 15.8849 240.286 15.8317C240.284 15.7785 240.283 15.7652 240.281 15.7121C240.279 15.6589 240.278 15.6456 240.276 15.5924C240.273 15.5393 240.273 15.526 240.271 15.4728C240.268 15.4196 240.268 15.4063 240.265 15.3532C240.263 15.3 240.263 15.2867 240.26 15.2335C240.258 15.1804 240.257 15.1671 240.255 15.1139C240.253 15.0608 240.252 15.0475 240.25 14.9943C240.248 14.9411 240.247 14.9278 240.245 14.8747C240.243 14.8215 240.242 14.8082 240.24 14.755C240.238 14.7019 240.237 14.6886 240.235 14.6354C240.232 14.5822 240.232 14.5689 240.23 14.5158L238.231 14.6014ZM238.395 18.4302C238.45 19.6878 238.505 20.9545 238.56 22.2303L240.558 22.1447C240.503 20.8684 240.448 19.6013 240.394 18.3433L238.395 18.4302ZM238.559 22.1875V41H240.559V22.1875H238.559ZM239.559 40H231.984V42H239.559V40ZM232.984 41V1.02344H230.984V41H232.984ZM231.984 2.02344H242.676V0.0234375H231.984V2.02344ZM241.811 1.5251L259.174 31.4665L260.904 30.4632L243.541 0.521779L241.811 1.5251ZM260.039 31.9648H260.23V29.9648H260.039V31.9648ZM261.23 30.9354C261.193 29.6908 261.148 28.4552 261.093 27.2287L259.095 27.3182C259.149 28.5343 259.195 29.7597 259.231 30.9942L261.23 30.9354ZM261.093 27.2287C261.09 27.1778 261.09 27.1651 261.088 27.1142C261.085 27.0633 261.085 27.0506 261.082 26.9997C261.08 26.9488 261.08 26.9361 261.077 26.8852C261.075 26.8343 261.075 26.8216 261.072 26.7707C261.07 26.7198 261.069 26.7071 261.067 26.6562C261.065 26.6053 261.064 26.5926 261.062 26.5417C261.06 26.4908 261.059 26.4781 261.057 26.4272C261.055 26.3763 261.054 26.3636 261.052 26.3127C261.049 26.2618 261.049 26.2491 261.047 26.1982C261.044 26.1473 261.044 26.1346 261.041 26.0837C261.039 26.0328 261.039 26.0201 261.036 25.9692C261.034 25.9183 261.034 25.9056 261.031 25.8547C261.029 25.8038 261.028 25.7911 261.026 25.7402C261.024 25.6893 261.023 25.6766 261.021 25.6257C261.019 25.5748 261.018 25.5621 261.016 25.5112C261.014 25.4603 261.013 25.4476 261.011 25.3967C261.009 25.3649 261.012 25.4142 261.01 25.3824C261.009 25.3506 261.011 25.3999 261.009 25.368C261.008 25.3362 261.01 25.3855 261.009 25.3537C261.007 25.3219 261.01 25.3712 261.008 25.3394C261.007 25.3076 261.009 25.3569 261.008 25.3251C261.006 25.2933 261.008 25.3426 261.007 25.3108C261.005 25.279 261.008 25.3283 261.006 25.2965C261.005 25.2647 261.007 25.314 261.006 25.2822C261.004 25.2504 261.006 25.2997 261.005 25.2679C261.004 25.2361 261.006 25.2854 261.004 25.2535C261.003 25.2217 261.005 25.271 261.004 25.2392C261.002 25.2074 261.004 25.2567 261.003 25.2249C261.002 25.1931 261.004 25.2424 261.002 25.2106C261.001 25.1788 261.003 25.2281 261.002 25.1963C261 25.1645 261.003 25.2138 261.001 25.182C261 25.1502 261.002 25.1995 261 25.1677C260.999 25.1359 261.001 25.1852 261 25.1534C260.998 25.1216 261.001 25.1709 260.999 25.139C260.998 25.1072 261 25.1565 260.999 25.1247C260.997 25.0929 260.999 25.1422 260.998 25.1104C260.996 25.0786 260.999 25.1279 260.997 25.0961C260.996 25.0643 260.998 25.1136 260.997 25.0818C260.995 25.05 260.997 25.0993 260.996 25.0675C260.995 25.0357 260.997 25.085 260.995 25.0532C260.994 25.0214 260.996 25.0707 260.995 25.0389C260.993 25.0071 260.995 25.0563 260.994 25.0245C260.993 24.9927 260.995 25.042 260.993 25.0102C260.992 24.9848 260.994 25.0214 260.993 24.9959C260.99 24.945 260.992 24.9896 260.99 24.9387C260.988 24.8878 260.987 24.8751 260.985 24.8242C260.983 24.7733 260.982 24.7606 260.98 24.7097C260.978 24.6588 260.977 24.6461 260.975 24.5952C260.973 24.5443 260.972 24.5315 260.97 24.4807C260.967 24.4298 260.967 24.417 260.965 24.3662C260.962 24.3153 260.962 24.3025 260.959 24.2517C260.957 24.2008 260.957 24.188 260.954 24.1372C260.952 24.0863 260.951 24.0735 260.949 24.0227C260.947 23.9718 260.946 23.959 260.944 23.9081C260.942 23.8573 260.941 23.8445 260.939 23.7936C260.937 23.7428 260.936 23.73 260.934 23.6791C260.932 23.6283 260.931 23.6155 260.929 23.5646L258.931 23.6541C258.932 23.6796 258.932 23.6859 258.933 23.7114C258.934 23.7368 258.935 23.7432 258.936 23.7686C258.937 23.7941 258.937 23.8004 258.938 23.8259C258.94 23.8513 258.94 23.8577 258.941 23.8831C258.942 23.9086 258.942 23.9149 258.944 23.9404C258.945 23.9658 258.945 23.9722 258.946 23.9976C258.947 24.0231 258.947 24.0294 258.949 24.0549C258.95 24.0803 258.95 24.0867 258.951 24.1121C258.951 24.1145 258.951 24.1169 258.952 24.1193C258.952 24.1217 258.952 24.124 258.952 24.1264C258.952 24.1288 258.952 24.1312 258.952 24.1336C258.952 24.136 258.952 24.1384 258.952 24.1407C258.953 24.1431 258.953 24.1455 258.953 24.1479C258.953 24.1503 258.953 24.1527 258.953 24.1551C258.953 24.1574 258.953 24.1598 258.953 24.1622C258.954 24.1646 258.954 24.167 258.954 24.1694C258.955 24.1948 258.955 24.2012 258.956 24.2266C258.957 24.2521 258.958 24.2584 258.959 24.2839C258.96 24.3093 258.96 24.3157 258.961 24.3411C258.963 24.3666 258.963 24.3729 258.964 24.3984C258.965 24.4238 258.965 24.4302 258.967 24.4556C258.968 24.4811 258.968 24.4874 258.969 24.5129C258.97 24.5383 258.971 24.5447 258.972 24.5701C258.973 24.5956 258.973 24.6019 258.974 24.6274C258.975 24.6528 258.976 24.6592 258.977 24.6846C258.978 24.7101 258.978 24.7164 258.979 24.7419C258.981 24.7673 258.981 24.7737 258.982 24.7991C258.983 24.8246 258.983 24.8309 258.985 24.8564C258.986 24.8818 258.986 24.8882 258.987 24.9136C258.988 24.9391 258.989 24.9454 258.99 24.9709C258.991 25.009 258.991 24.99 258.992 25.0281C258.994 25.079 258.995 25.0917 258.997 25.1426C259 25.1935 259 25.2062 259.002 25.2571C259.005 25.308 259.005 25.3207 259.008 25.3716C259.01 25.4225 259.01 25.4352 259.013 25.4861C259.014 25.5179 259.012 25.4686 259.013 25.5005C259.015 25.5323 259.013 25.483 259.014 25.5148C259.015 25.5466 259.013 25.4973 259.015 25.5291C259.016 25.5609 259.014 25.5116 259.015 25.5434C259.017 25.5752 259.014 25.5259 259.016 25.5577C259.017 25.5895 259.015 25.5402 259.017 25.572C259.018 25.6038 259.016 25.5545 259.017 25.5863C259.019 25.6181 259.016 25.5688 259.018 25.6006C259.019 25.6324 259.017 25.5831 259.018 25.615C259.02 25.6468 259.018 25.5975 259.019 25.6293C259.021 25.6611 259.018 25.6118 259.02 25.6436C259.021 25.6754 259.019 25.6261 259.02 25.6579C259.022 25.6897 259.02 25.6404 259.021 25.6722C259.022 25.704 259.02 25.6547 259.022 25.6865C259.023 25.7183 259.021 25.669 259.022 25.7008C259.024 25.7326 259.022 25.6833 259.023 25.7151C259.024 25.7469 259.022 25.6976 259.024 25.7295C259.025 25.7613 259.023 25.712 259.024 25.7438C259.026 25.7756 259.023 25.7263 259.025 25.7581C259.026 25.7899 259.024 25.7406 259.026 25.7724C259.027 25.8042 259.025 25.7549 259.026 25.7867C259.028 25.8185 259.025 25.7692 259.027 25.801C259.028 25.8328 259.026 25.7835 259.027 25.8153C259.029 25.8471 259.027 25.7978 259.028 25.8296C259.03 25.8614 259.027 25.8122 259.029 25.844C259.03 25.8758 259.028 25.8265 259.029 25.8583C259.031 25.8901 259.029 25.8408 259.03 25.8726C259.031 25.9044 259.029 25.8551 259.031 25.8869C259.032 25.9187 259.03 25.8694 259.031 25.9012C259.033 25.933 259.031 25.8837 259.032 25.9155C259.033 25.9473 259.031 25.898 259.033 25.9298C259.034 25.9616 259.032 25.9123 259.033 25.9441C259.035 25.976 259.032 25.9267 259.034 25.9585C259.035 25.9903 259.033 25.941 259.035 25.9728C259.036 26.0046 259.034 25.9553 259.035 25.9871C259.037 26.0189 259.034 25.9696 259.036 26.0014C259.037 26.0332 259.035 25.9839 259.036 26.0157C259.038 26.0475 259.036 25.9982 259.037 26.03C259.038 26.0618 259.036 26.0125 259.038 26.0443C259.039 26.0761 259.037 26.0268 259.038 26.0586C259.04 26.0905 259.038 26.0412 259.039 26.073C259.04 26.1048 259.038 26.0555 259.04 26.0873C259.041 26.1191 259.039 26.0698 259.04 26.1016C259.042 26.1334 259.039 26.0841 259.041 26.1159C259.042 26.1477 259.04 26.0984 259.042 26.1302C259.043 26.162 259.041 26.1127 259.042 26.1445C259.044 26.1763 259.041 26.127 259.043 26.1588C259.044 26.1906 259.042 26.1413 259.043 26.1731C259.045 26.205 259.043 26.1557 259.044 26.1875C259.046 26.2193 259.043 26.17 259.045 26.2018C259.046 26.2336 259.044 26.1843 259.045 26.2161C259.047 26.2479 259.045 26.1986 259.046 26.2304C259.047 26.2622 259.045 26.2129 259.047 26.2447C259.048 26.2765 259.046 26.2272 259.047 26.259C259.049 26.2908 259.047 26.2415 259.048 26.2733C259.049 26.3051 259.047 26.2558 259.049 26.2877C259.05 26.3195 259.048 26.2702 259.049 26.302C259.051 26.3338 259.048 26.2845 259.05 26.3163C259.051 26.3481 259.049 26.2988 259.051 26.3306C259.052 26.3624 259.05 26.3131 259.051 26.3449C259.053 26.3767 259.05 26.3274 259.052 26.3592C259.053 26.391 259.051 26.3417 259.052 26.3735C259.054 26.4053 259.052 26.356 259.053 26.3878C259.055 26.4196 259.052 26.3703 259.054 26.4022C259.055 26.434 259.053 26.3847 259.054 26.4165C259.056 26.4483 259.054 26.399 259.055 26.4308C259.056 26.4626 259.054 26.4133 259.056 26.4451C259.057 26.4769 259.055 26.4276 259.056 26.4594C259.058 26.4912 259.056 26.4419 259.057 26.4737C259.058 26.5055 259.056 26.4562 259.058 26.488C259.059 26.5198 259.057 26.4705 259.058 26.5023C259.06 26.5341 259.057 26.4848 259.059 26.5167C259.06 26.5485 259.058 26.4992 259.06 26.531C259.061 26.5628 259.059 26.5135 259.06 26.5453C259.062 26.5771 259.059 26.5278 259.061 26.5596C259.062 26.5914 259.06 26.5421 259.061 26.5739C259.063 26.6057 259.061 26.5564 259.062 26.5882C259.063 26.62 259.061 26.5707 259.063 26.6025C259.064 26.6343 259.062 26.585 259.063 26.6168C259.065 26.6487 259.063 26.5994 259.064 26.6312C259.065 26.663 259.063 26.6137 259.065 26.6455C259.066 26.6773 259.064 26.628 259.065 26.6598C259.067 26.6916 259.064 26.6423 259.066 26.6741C259.067 26.7059 259.065 26.6566 259.067 26.6884C259.068 26.7202 259.066 26.6709 259.067 26.7027C259.069 26.7345 259.066 26.6852 259.068 26.717C259.069 26.7488 259.067 26.6995 259.068 26.7313C259.07 26.7632 259.068 26.7139 259.069 26.7457C259.071 26.7775 259.068 26.7282 259.07 26.76C259.071 26.7918 259.069 26.7425 259.07 26.7743C259.072 26.8061 259.07 26.7568 259.071 26.7886C259.072 26.8204 259.07 26.7711 259.072 26.8029C259.073 26.8347 259.071 26.7854 259.072 26.8172C259.074 26.849 259.072 26.7997 259.073 26.8315C259.074 26.8633 259.072 26.814 259.074 26.8458C259.075 26.8777 259.073 26.8284 259.074 26.8602C259.076 26.892 259.073 26.8427 259.075 26.8745C259.076 26.9063 259.074 26.857 259.076 26.8888C259.077 26.9206 259.075 26.8713 259.076 26.9031C259.078 26.9349 259.075 26.8856 259.077 26.9174C259.078 26.9492 259.076 26.8999 259.077 26.9317C259.079 26.9635 259.077 26.9142 259.078 26.946C259.08 26.9778 259.077 26.9285 259.079 26.9604C259.08 26.9922 259.078 26.9429 259.079 26.9747C259.081 27.0065 259.079 26.9572 259.08 26.989C259.081 27.0208 259.079 26.9715 259.081 27.0033C259.082 27.0351 259.08 26.9858 259.081 27.0176C259.083 27.0494 259.081 27.0001 259.082 27.0319C259.083 27.0637 259.081 27.0144 259.083 27.0462C259.084 27.078 259.082 27.0287 259.083 27.0605C259.085 27.0923 259.082 27.043 259.084 27.0749C259.085 27.1067 259.083 27.0574 259.084 27.0892C259.086 27.121 259.084 27.0717 259.085 27.1035C259.087 27.1353 259.084 27.086 259.086 27.1178C259.087 27.1496 259.085 27.1003 259.086 27.1321C259.088 27.1639 259.086 27.1146 259.087 27.1464C259.088 27.1782 259.086 27.1289 259.088 27.1607C259.089 27.1925 259.087 27.1432 259.088 27.175C259.09 27.2068 259.088 27.1575 259.089 27.1894C259.09 27.2212 259.088 27.1719 259.09 27.2037C259.091 27.2355 259.089 27.1862 259.09 27.218C259.092 27.2498 259.089 27.2005 259.091 27.2323C259.092 27.2641 259.09 27.2148 259.092 27.2466C259.093 27.2784 259.091 27.2291 259.092 27.2609C259.094 27.2927 259.091 27.2434 259.093 27.2752C259.094 27.307 259.092 27.2577 259.093 27.2895C259.095 27.3213 259.093 27.272 259.094 27.3039C259.096 27.3357 259.093 27.2864 259.095 27.3182L261.093 27.2287ZM260.929 23.5795C260.924 23.3945 260.921 23.3066 260.916 23.1215C260.91 22.9365 260.907 22.8486 260.902 22.6635C260.896 22.4785 260.894 22.3906 260.888 22.2055C260.883 22.0205 260.88 21.9326 260.875 21.7475C260.874 21.7155 260.874 21.7223 260.873 21.6903C260.872 21.6583 260.872 21.665 260.871 21.633C260.87 21.601 260.87 21.6078 260.869 21.5758C260.868 21.5438 260.869 21.5505 260.868 21.5185C260.867 21.4865 260.867 21.4933 260.866 21.4613C260.865 21.4293 260.865 21.436 260.864 21.404C260.863 21.372 260.864 21.3787 260.863 21.3467C260.862 21.3148 260.862 21.3215 260.861 21.2895C260.86 21.2575 260.86 21.2642 260.859 21.2322C260.858 21.2002 260.858 21.207 260.857 21.175C260.857 21.143 260.857 21.1497 260.856 21.1177C260.855 21.0857 260.855 21.0925 260.854 21.0605C260.853 21.0285 260.853 21.0352 260.852 21.0032C260.851 20.9712 260.852 20.978 260.851 20.946C260.85 20.914 260.85 20.9207 260.849 20.8887C260.848 20.8567 260.848 20.8635 260.847 20.8315C260.846 20.7995 260.846 20.8062 260.846 20.7742C260.845 20.7422 260.845 20.749 260.844 20.717C260.843 20.685 260.843 20.6917 260.842 20.6597C260.841 20.6277 260.841 20.6345 260.84 20.6025C260.839 20.5705 260.84 20.5772 260.839 20.5452C260.838 20.5132 260.838 20.52 260.837 20.488C260.836 20.456 260.836 20.4627 260.835 20.4307C260.834 20.3987 260.834 20.4055 260.834 20.3735C260.833 20.3415 260.833 20.3482 260.832 20.3162C260.831 20.2842 260.831 20.291 260.83 20.259C260.829 20.227 260.829 20.2337 260.828 20.2017C260.827 20.1697 260.828 20.1765 260.827 20.1445C260.826 20.1125 260.826 20.1192 260.825 20.0872C260.824 20.0552 260.824 20.062 260.823 20.03C260.822 19.998 260.823 20.0047 260.822 19.9727C260.821 19.9407 260.821 19.9475 260.82 19.9155L258.821 19.9751C258.821 19.9819 258.822 20.0257 258.822 20.0324C258.823 20.0391 258.824 20.0829 258.824 20.0897C258.824 20.0964 258.826 20.1402 258.826 20.1469C258.826 20.1536 258.827 20.1974 258.828 20.2042C258.828 20.2109 258.829 20.2547 258.829 20.2614C258.83 20.2682 258.831 20.3119 258.831 20.3187C258.831 20.3254 258.833 20.3692 258.833 20.3759C258.833 20.3827 258.834 20.4264 258.834 20.4332C258.835 20.4399 258.836 20.4837 258.836 20.4904C258.836 20.4972 258.838 20.5409 258.838 20.5477C258.838 20.5544 258.839 20.5982 258.84 20.6049C258.84 20.6117 258.841 20.6554 258.841 20.6622C258.841 20.6689 258.843 20.7127 258.843 20.7194C258.843 20.7262 258.844 20.7699 258.845 20.7767C258.845 20.7834 258.846 20.8272 258.846 20.8339C258.847 20.8407 258.848 20.8844 258.848 20.8912C258.848 20.8979 258.85 20.9417 258.85 20.9484C258.85 20.9552 258.851 20.9989 258.852 21.0057C258.852 21.0124 258.853 21.0562 258.853 21.0629C258.853 21.0697 258.855 21.1134 258.855 21.1202C258.855 21.1269 258.856 21.1707 258.857 21.1774C258.857 21.1842 258.858 21.2279 258.858 21.2347C258.859 21.2414 258.86 21.2852 258.86 21.2919C258.86 21.2987 258.862 21.3424 258.862 21.3492C258.862 21.3559 258.863 21.3997 258.863 21.4064C258.864 21.4132 258.865 21.4569 258.865 21.4637C258.865 21.4704 258.867 21.5142 258.867 21.5209C258.867 21.5277 258.868 21.5714 258.869 21.5782C258.869 21.5849 258.87 21.6287 258.87 21.6354C258.871 21.6422 258.872 21.6859 258.872 21.6927C258.872 21.6994 258.874 21.7432 258.874 21.7499C258.874 21.7567 258.875 21.8004 258.875 21.8072C258.876 21.8373 258.881 22.0061 258.882 22.0362C258.883 22.0663 258.888 22.2351 258.889 22.2652C258.89 22.2953 258.895 22.4641 258.896 22.4942C258.897 22.5243 258.902 22.6931 258.903 22.7232C258.904 22.7533 258.909 22.9221 258.91 22.9522C258.911 22.9823 258.916 23.1511 258.916 23.1812C258.917 23.2113 258.922 23.3801 258.923 23.4102C258.924 23.4403 258.929 23.6091 258.93 23.6392L260.929 23.5795ZM260.82 19.9453V1.02344H258.82V19.9453H260.82ZM259.82 2.02344H267.449V0.0234375H259.82V2.02344ZM266.449 1.02344V41H268.449V1.02344H266.449ZM292.961 41V42H293.961V41H292.961ZM284.484 41H283.484V42H284.484V41ZM284.484 8.07812H285.484V7.07812H284.484V8.07812ZM273.629 8.07812H272.629V9.07812H273.629V8.07812ZM273.629 1.02344V0.0234375H272.629V1.02344H273.629ZM303.816 1.02344H304.816V0.0234375H303.816V1.02344ZM303.816 8.07812V9.07812H304.816V8.07812H303.816ZM292.961 8.07812V7.07812H291.961V8.07812H292.961ZM292.961 40H284.484V42H292.961V40ZM285.484 41V8.07812H283.484V41H285.484ZM284.484 7.07812H273.629V9.07812H284.484V7.07812ZM274.629 8.07812V1.02344H272.629V8.07812H274.629ZM273.629 2.02344H303.816V0.0234375H273.629V2.02344ZM302.816 1.02344V8.07812H304.816V1.02344H302.816ZM303.816 7.07812H292.961V9.07812H303.816V7.07812ZM291.961 8.07812V41H293.961V8.07812H291.961Z" fill="white"/>
</svg>
